<svg version="1.0" xmlns="http://www.w3.org/2000/svg" viewBox="205 104.7 405 326.9" preserveAspectRatio="xMidYMid meet">

<g transform="translate(0.000000,540.000000) scale(0.100000,-0.100000)" fill="#b6b6b6" stroke="none">
<path d="M3572 4339 c-63 -12 -142 -59 -169 -100 -46 -69 -53 -117 -53 -339 0
-222 -2 -230 -52 -230 l-28 0 0 -130 0 -130 24 0 c52 0 56 -15 56 -225 0 -107
5 -217 11 -245 17 -77 63 -139 132 -174 52 -27 70 -30 173 -34 l114 -5 0 131
0 131 -82 3 -83 3 -6 215 c-6 205 -10 240 -39 302 -11 24 -10 34 11 80 21 49
23 69 27 263 2 123 8 215 14 223 7 7 37 12 84 12 l74 0 0 130 0 130 -82 -1
c-46 -1 -102 -5 -126 -10z m148 -119 l0 -70 -45 0 c-52 0 -99 -21 -115 -49 -6
-12 -10 -96 -10 -203 0 -189 -11 -268 -47 -328 -15 -26 -14 -30 13 -86 29 -58
29 -61 34 -282 l5 -224 28 -24 c22 -19 39 -24 83 -24 l54 0 0 -70 0 -70 -53 0
c-122 0 -222 59 -246 145 -6 23 -11 125 -11 242 0 111 -4 213 -10 228 -5 14
-23 34 -40 43 -29 16 -30 19 -30 90 0 69 1 73 25 82 47 18 55 59 55 278 0 231
10 282 64 330 47 41 105 59 194 61 l52 1 0 -70z"></path>
<path d="M4370 4221 l0 -131 74 0 c47 0 77 -5 84 -12 6 -8 12 -98 14 -218 3
-169 7 -213 22 -250 23 -57 23 -83 0 -140 -15 -37 -19 -84 -23 -260 l-6 -215
-82 -3 -83 -3 0 -131 0 -131 113 5 c164 8 238 46 286 147 25 54 26 63 29 276
4 238 8 255 59 255 23 0 23 0 23 130 l0 130 -28 0 c-50 0 -52 9 -52 222 0 220
-8 275 -50 341 -22 35 -43 52 -95 78 -60 29 -78 33 -176 37 l-109 5 0 -132z
m247 44 c52 -21 98 -71 112 -122 6 -21 11 -129 11 -241 0 -222 8 -262 54 -284
24 -10 26 -16 26 -84 0 -62 -3 -74 -19 -79 -10 -3 -27 -15 -37 -26 -17 -19
-20 -44 -24 -258 -6 -262 -9 -274 -76 -329 -42 -35 -100 -52 -178 -52 l-56 0
0 69 0 69 60 4 c45 3 66 10 83 26 21 22 22 32 27 245 5 220 5 223 34 280 l28
59 -28 56 c-28 56 -29 59 -32 262 -1 113 -5 215 -8 228 -7 33 -61 62 -116 62
l-48 0 0 71 0 72 73 -6 c39 -3 91 -13 114 -22z"></path>
<path d="M3880 3930 l0 -190 190 0 190 0 0 190 0 190 -190 0 -190 0 0 -190z
m320 0 l0 -130 -130 0 -130 0 0 130 0 130 130 0 130 0 0 -130z"></path>
<path d="M3880 3440 l0 -190 94 0 c53 0 98 -4 101 -10 4 -6 1 -35 -5 -65 -17
-82 -60 -114 -170 -128 -10 -1 -16 -16 -18 -41 l-3 -39 83 6 c143 9 237 56
277 140 19 40 21 61 21 280 l0 237 -190 0 -190 0 0 -190z m318 -73 c-3 -201
-3 -204 -29 -243 -15 -21 -40 -47 -57 -57 l-31 -18 21 48 c14 32 23 76 26 131
l5 82 -97 0 -96 0 0 130 0 130 131 0 130 0 -3 -203z"></path>
<path d="M2050 2120 l0 -340 90 0 90 0 2 184 3 185 128 -185 128 -184 75 0 74
0 0 340 0 340 -85 0 -85 0 -2 -187 -3 -186 -130 186 -130 187 -77 0 -78 0 0
-340z"></path>
<path d="M2760 2172 l0 -288 53 -52 53 -52 232 0 232 0 0 75 0 75 -195 0 -195
0 0 60 0 60 170 0 170 0 0 70 0 70 -170 0 -170 0 0 60 0 60 195 0 195 0 0 75
0 75 -285 0 -285 0 0 -288z"></path>
<path d="M3450 2120 l0 -340 253 0 253 0 52 53 52 53 0 79 c0 78 -1 80 -37
117 l-37 38 37 38 c36 37 37 39 37 118 l0 80 -53 52 -53 52 -252 0 -252 0 0
-340z m430 130 l0 -61 -127 3 -128 3 -3 44 c-5 72 -7 71 133 71 l125 0 0 -60z
m0 -260 l0 -60 -130 0 -130 0 0 53 c0 30 3 57 7 60 3 4 62 7 130 7 l123 0 0
-60z"></path>
<path d="M4177 2453 c-4 -3 -7 -133 -7 -288 l0 -281 53 -52 53 -52 195 0 195
0 52 53 52 53 0 287 0 288 -87 -3 -88 -3 -3 -262 -2 -263 -120 0 -120 0 0 265
0 265 -83 0 c-46 0 -87 -3 -90 -7z"></path>
<path d="M4887 2453 c-4 -3 -7 -133 -7 -288 l0 -281 53 -52 53 -52 217 0 217
0 0 75 0 75 -180 0 -180 0 0 265 0 265 -83 0 c-46 0 -87 -3 -90 -7z"></path>
<path d="M5557 2412 l-47 -48 0 -292 0 -292 85 0 85 0 0 95 0 95 120 0 119 0
3 -92 3 -93 88 -3 87 -3 0 288 0 289 -53 52 -53 52 -195 0 -195 0 -47 -48z
m363 -197 l0 -95 -120 0 -120 0 0 95 0 95 120 0 120 0 0 -95z"></path>
<path d="M2656 1573 c-11 -3 -36 -16 -57 -28 -30 -19 -36 -21 -35 -8 6 76 -93
-92 -102 -173 -12 -110 84 -128 174 -32 61 64 69 104 29 141 l-26 23 36 17
c68 33 53 78 -19 60z m9 -123 c9 -15 -31 -84 -70 -118 -59 -53 -115 -56 -115
-6 0 39 48 122 74 127 42 8 105 7 111 -3z"></path>
<path d="M4189 1523 c-66 -151 -80 -210 -59 -243 9 -13 11 -13 20 0 5 8 7 25
4 37 -4 13 10 56 35 113 23 51 41 101 41 111 0 37 -21 28 -41 -18z"></path>
<path d="M5172 1496 c-16 -19 -44 -37 -61 -41 -35 -7 -42 -25 -10 -25 16 0 19
-4 14 -17 -21 -49 -44 -158 -35 -167 10 -10 13 -6 31 64 6 25 19 61 30 81 15
31 25 38 56 41 21 3 39 4 40 3 2 -1 -11 -38 -27 -84 -17 -45 -30 -90 -30 -101
0 -36 29 -21 69 38 36 52 91 113 91 100 0 -3 -7 -22 -15 -42 -15 -35 -13 -56
4 -56 5 0 20 26 34 57 19 42 23 61 15 70 -16 20 -31 16 -82 -22 -25 -20 -46
-32 -46 -28 0 4 16 40 34 78 19 39 32 73 29 78 -10 16 -23 5 -43 -33 -21 -40
-30 -45 -63 -31 -17 6 -17 8 -3 20 9 7 16 19 16 27 0 27 -19 23 -48 -10z"></path>
<path d="M4555 1490 c-15 -16 -41 -32 -56 -35 -33 -7 -39 -25 -10 -25 19 0 19
-1 1 -52 -24 -72 -33 -125 -21 -133 6 -3 18 20 27 52 29 101 48 130 89 135 45
5 49 1 26 -31 -50 -71 -45 -131 9 -131 36 0 62 35 64 85 1 34 3 35 39 35 23 0
36 4 32 10 -3 6 -20 10 -36 10 -16 0 -39 9 -50 19 -12 11 -36 22 -55 26 -33 6
-34 7 -19 28 32 46 3 52 -40 7z m95 -142 c-10 -35 -35 -66 -46 -55 -3 3 5 28
17 57 24 56 44 55 29 -2z"></path>
<path d="M2920 1491 c0 -5 5 -13 10 -16 6 -3 10 -2 10 4 0 5 -4 13 -10 16 -5
3 -10 2 -10 -4z"></path>
<path d="M3693 1459 c-30 -19 -72 -74 -86 -112 -7 -19 8 -56 27 -69 20 -14 53
-8 71 12 12 14 15 24 9 30 -7 7 -17 4 -29 -10 -19 -21 -40 -26 -50 -10 -12 20
61 150 85 150 13 0 -30 -71 -46 -77 -15 -5 -9 -23 7 -23 13 0 69 80 69 100 0
27 -23 30 -57 9z"></path>
<path d="M4260 1443 c-68 -61 -89 -123 -52 -156 26 -24 69 -22 82 4 18 32 7
42 -22 20 -37 -30 -50 -27 -46 12 2 26 7 32 25 30 15 -2 31 9 51 35 40 52 45
70 22 82 -16 9 -27 4 -60 -27z m39 -15 c-16 -31 -40 -58 -52 -58 -17 0 42 78
61 80 1 0 -3 -10 -9 -22z"></path>
<path d="M5007 1461 c-33 -21 -64 -61 -82 -104 -13 -32 -13 -37 6 -61 12 -15
31 -26 44 -26 27 0 55 24 55 47 0 14 -3 14 -22 -1 -54 -39 -77 -26 -53 31 17
41 64 103 77 103 12 0 -17 -49 -43 -71 -17 -16 -16 -29 3 -29 13 0 68 81 68
100 0 26 -23 31 -53 11z"></path>
<path d="M5471 1459 c-33 -20 -91 -102 -91 -129 0 -54 74 -81 104 -38 22 31 8
43 -20 17 -23 -22 -54 -21 -54 3 0 22 40 94 65 118 36 34 31 7 -6 -35 -33 -37
-34 -50 -5 -39 17 6 66 82 66 101 0 20 -28 21 -59 2z"></path>
<path d="M3025 1420 c-17 -11 -38 -17 -50 -14 -17 4 -26 -4 -47 -43 -25 -47
-27 -73 -6 -73 6 0 28 20 50 45 22 25 49 50 61 57 20 10 20 10 -2 -23 -38 -58
-54 -96 -48 -113 14 -37 66 -32 116 10 17 14 35 23 41 19 6 -4 27 3 46 14 l35
21 -6 -22 c-13 -41 -76 -156 -96 -174 -18 -16 -19 -16 -19 9 0 15 13 41 30 60
36 42 38 53 6 32 -46 -31 -74 -126 -40 -139 18 -7 45 10 74 46 24 31 120 234
120 253 0 24 -21 28 -42 8 -15 -13 -22 -15 -25 -5 -14 38 -105 -21 -108 -70
-1 -17 -14 -29 -46 -45 -24 -12 -47 -22 -51 -23 -18 -1 -5 29 38 93 25 38 43
75 40 83 -8 20 -36 17 -71 -6z m155 -79 c-10 -20 -30 -29 -30 -14 0 10 33 44
37 39 3 -2 0 -14 -7 -25z"></path>
<path d="M3766 1382 c-30 -61 -31 -88 -5 -105 41 -26 89 19 89 83 0 28 3 30
35 30 19 0 35 5 35 10 0 6 -15 10 -34 10 -18 0 -39 7 -46 15 -23 28 -44 16
-74 -43z m39 -61 c-17 -33 -35 -41 -35 -16 0 9 10 35 22 58 22 40 23 41 26 15
2 -15 -4 -40 -13 -57z"></path>
<path d="M2726 1420 c-15 -44 -46 -140 -46 -145 0 -3 6 -5 14 -5 8 0 20 16 26
35 14 42 68 91 111 100 23 5 28 10 18 16 -15 9 -57 2 -77 -14 -9 -7 -17 -5
-27 9 -11 16 -14 17 -19 4z"></path>
<path d="M2871 1397 c-29 -48 -42 -87 -36 -108 8 -24 25 -25 25 -1 0 9 14 41
30 71 28 50 31 71 10 71 -5 0 -17 -15 -29 -33z"></path>
<path d="M3528 1405 c-21 -14 -38 -21 -38 -15 0 5 -7 10 -16 10 -17 0 -92
-151 -101 -204 -10 -61 14 -47 50 29 27 55 41 75 55 75 58 0 136 62 130 104
-4 30 -37 30 -80 1z m50 -17 c-19 -29 -76 -68 -97 -68 -21 1 75 90 96 90 14 0
14 -3 1 -22z"></path>
<path d="M4018 1407 c-30 -21 -35 -22 -48 -8 -13 13 -20 4 -58 -77 -24 -51
-46 -108 -49 -127 -10 -59 16 -41 50 35 26 60 34 70 56 70 58 1 143 75 128
114 -9 23 -38 20 -79 -7z m41 -28 c-20 -28 -85 -66 -96 -56 -7 7 89 87 104 87
11 0 9 -8 -8 -31z"></path>
<path d="M5537 1358 c-14 -40 -23 -76 -21 -80 10 -15 22 -8 32 20 16 46 61 91
103 104 31 9 37 14 25 20 -9 5 -29 3 -52 -7 -45 -18 -44 -18 -44 0 0 35 -19
10 -43 -57z"></path>
<path d="M4866 1393 c-13 -13 -20 -15 -23 -5 -9 24 -51 12 -82 -23 -36 -42
-37 -46 -12 -69 21 -19 44 -13 84 22 17 15 17 14 7 -13 -21 -54 -81 -163 -101
-181 -18 -16 -19 -16 -19 9 0 15 13 41 30 60 36 42 38 53 6 32 -46 -31 -74
-126 -40 -139 37 -14 83 44 149 188 54 118 54 169 1 119z m-70 -61 c-22 -23
-29 -10 -9 18 11 16 18 19 21 11 2 -7 -3 -20 -12 -29z"></path>
</g>
</svg>